Coordinates
version=1
nRows=14
nColumns=33
inDegrees=yes

Units are S.I. units (second, meters, Newtons, ...)
Angles are in degrees.

endheader
time	ground_thorax_rot_x	ground_thorax_rot_y	ground_thorax_rot_z	ground_thorax_tx	ground_thorax_ty	ground_thorax_tz	clav_prot_r	clav_elev_r	scapula_abduction_r	scapula_elevation_r	scapula_upward_rot_r	scapula_winging_r	shoulder_elv_r	plane_of_elev_r	axial_rot_r	elbow_flexion_r	pro_sup_r	wrist_flex_r	wrist_dev_r	clav_prot_l	clav_elev_l	scapula_abduction_l	scapula_elevation_l	scapula_upward_rot_l	scapula_winging_l	shoulder_elv_l	plane_of_elev_l	axial_rot_l	elbow_flexion_l	pro_sup_l	wrist_flex_l	wrist_dev_l
      7.20000000	    -35.17371404	    -24.75395291	     30.49630561	    -88.73283303	    851.58052137	    -52.36045767	     45.00000000	    -45.00000000	     40.18466700	    -45.00000000	    -30.52646295	    348.86127968	   4178.75742977	    -90.00000000	    -17.53611386	   3938.79652150	    103.85248973	     15.19892757	     11.44183003	     -0.52092846	     33.21382852	    -32.19797058	    -45.00000000	    -45.00000000	   4409.97310046	  -5127.61511850	    132.63123332	   -104.87687642	   1790.37816206	    405.13205467	     13.09361806	    -22.40641370
      7.21000000	    -34.96502665	    -25.06563301	     30.89193716	    -88.18185476	    851.42142353	    -52.42359590	     45.00000000	    -45.00000000	     40.27246421	    -45.00000000	    -30.91875413	    348.82961854	   4178.74904461	    -90.00000000	    -17.51812214	   3938.61273143	    102.75439329	     15.21816341	     11.45831921	     -0.62228099	     33.29756685	    -32.07331790	    -45.00000000	    -45.00000000	   4409.87216318	  -5127.50713382	    132.77085647	   -104.87534327	   1790.27068228	    403.93494747	     13.56773832	    -22.24947719
      7.22000000	    -34.88908179	    -25.16779341	     30.92647396	    -87.57359023	    851.28694169	    -52.47870161	     45.00000000	    -45.00000000	     40.32356416	    -45.00000000	    -30.69482088	    348.88571816	   4178.75191473	    -90.00000000	    -17.51175064	   3938.59867695	    101.86045312	     15.05487317	     11.47088172	     -0.71090763	     33.20611456	    -32.08180778	    -45.00000000	    -45.00000000	   4409.95146905	  -5127.53762273	    132.62524046	   -104.78295326	   1790.18975048	    403.03746797	     13.48624484	    -22.16090718
      7.23000000	    -34.74691986	    -25.33830200	     31.10524977	    -86.90194356	    851.17305923	    -52.52393761	     45.00000000	    -45.00000000	     40.42155682	    -45.00000000	    -30.74386084	    348.85511473	   4178.75089170	    -90.00000000	    -17.50138154	   3938.44551031	    101.08570096	     15.12041039	     11.48793766	     -0.68738226	     33.28509677	    -31.98186517	    -45.00000000	    -45.00000000	   4409.79502537	  -5127.40879330	    132.69170196	   -104.50986859	   1790.16980993	    402.46045025	     13.84523705	    -22.10679682
      7.24000000	    -34.65023222	    -25.47320168	     31.19276616	    -86.16300058	    851.07545873	    -52.55882700	     45.00000000	    -45.00000000	     40.48869099	    -45.00000000	    -30.57969871	    348.89621816	   4178.79031550	    -90.00000000	    -17.53148318	   3938.39943724	    100.43582735	     14.95307794	     11.51888983	     -0.84112493	     33.16579741	    -31.92537353	    -45.00000000	    -45.00000000	   4409.83236867	  -5127.33714940	    132.53446635	   -104.30117195	   1790.09731313	    401.98309859	     13.68047037	    -22.05121392
      7.25000000	    -34.52243684	    -25.63973874	     31.37442590	    -85.35439543	    850.98931297	    -52.58366497	     45.00000000	    -45.00000000	     40.58394834	    -45.00000000	    -30.53993629	    348.86810831	   4178.78553651	    -90.00000000	    -17.51726296	   3938.27522937	     99.85632215	     15.03691813	     11.53148075	     -0.80487631	     33.25239112	    -31.87027131	    -45.00000000	    -45.00000000	   4409.68813143	  -5127.21148797	    132.60805266	   -104.01456437	   1790.10043186	    401.70503430	     13.99525850	    -22.04815165
      7.26000000	    -34.41305074	    -25.79525585	     31.49437248	    -84.47331378	    850.90944755	    -52.59987888	     45.00000000	    -45.00000000	     40.65443264	    -45.00000000	    -30.38292980	    348.91748577	   4178.84213029	    -90.00000000	    -17.56442280	   3938.23056095	     99.37297814	     14.87162806	     11.56634695	     -0.94547296	     33.13291433	    -31.80594353	    -45.00000000	    -45.00000000	   4409.70522942	  -5127.12762988	    132.46084863	   -103.78818647	   1790.05060848	    401.44887295	     13.81426592	    -22.01436947
      7.27000000	    -34.27651512	    -25.98766029	     31.70397593	    -83.51797967	    850.83095502	    -52.60978112	     45.00000000	    -45.00000000	     40.76415868	    -45.00000000	    -30.31109617	    348.89695151	   4178.84886510	    -90.00000000	    -17.56160264	   3938.11593384	     98.93634871	     14.95350490	     11.58129241	     -0.94107008	     33.20834500	    -31.75547505	    -45.00000000	    -45.00000000	   4409.57640911	  -5127.00175699	    132.52262667	   -103.48671602	   1790.05286064	    401.33174843	     14.08646753	    -22.03069308
      7.28000000	    -34.16144670	    -26.16108256	     31.85035361	    -82.48725572	    850.74931169	    -52.61650014	     45.00000000	    -45.00000000	     40.84148924	    -45.00000000	    -30.15353731	    348.95139707	   4178.91504109	    -90.00000000	    -17.61816164	   3938.06329530	     98.57633106	     14.80115237	     11.61894664	     -1.06133451	     33.10324868	    -31.70494490	    -45.00000000	    -45.00000000	   4409.57162843	  -5126.91762787	    132.39843416	   -103.23376808	   1790.01108049	    401.20560848	     13.93620354	    -22.00446697
      7.29000000	    -34.32804275	    -25.94986354	     31.53376069	    -81.38589176	    850.66081820	    -52.62343354	     45.00000000	    -45.00000000	     40.54754086	    -45.00000000	    -29.86812333	    349.18112115	   4179.00957859	    -90.00000000	    -17.69931648	   3938.02596559	     98.14079350	     14.84389101	     11.60273848	     -0.79219097	     33.16839419	    -32.38238792	    -45.00000000	    -45.00000000	   4409.81803066	  -5127.30555414	    132.36436105	   -102.87790413	   1790.12830212	    401.11783484	     13.99764016	    -22.02020939
      7.30000000	    -34.28935860	    -26.05057402	     31.57681960	    -80.20633382	    850.56120335	    -52.63391398	     45.00000000	    -45.00000000	     40.49753963	    -45.00000000	    -29.66784310	    349.34403314	   4179.04599681	    -90.00000000	    -17.72121234	   3937.99268243	     97.78833752	     14.82149809	     11.59758013	     -0.71320446	     33.19155315	    -32.38865375	    -45.00000000	    -45.00000000	   4409.78742141	  -5127.26409757	    132.22960019	   -102.68960722	   1790.18469214	    401.07596286	     14.02981094	    -22.00956887
      7.31000000	    -34.19536574	    -26.22780638	     31.73145153	    -78.95428023	    850.44761014	    -52.65009402	     45.00000000	    -45.00000000	     40.54878117	    -45.00000000	    -29.53727313	    349.41630164	   4179.10000811	    -90.00000000	    -17.76061607	   3937.91728795	     97.53257706	     14.78649568	     11.61835943	     -0.73649057	     33.18499631	    -32.39902285	    -45.00000000	    -45.00000000	   4409.76039244	  -5127.19531506	    132.15834191	   -102.39193091	   1790.21492768	    401.06693988	     14.05527514	    -21.99547183
      7.32000000	    -34.12294870	    -26.37200063	     31.88528308	    -77.63024836	    850.31656061	    -52.67276715	     45.00000000	    -45.00000000	     40.60160126	    -45.00000000	    -29.34345791	    349.46103341	   4179.14371496	    -90.00000000	    -17.78904579	   3937.84928493	     97.34728375	     14.72123556	     11.64438232	     -0.64284434	     33.19632095	    -32.45135645	    -45.00000000	    -45.00000000	   4409.69624741	  -5127.08733379	    132.10241089	   -102.10868424	   1790.22759734	    401.07636749	     14.10509652	    -21.98262044
      7.33000000	    -34.02320614	    -26.54452707	     32.04344128	    -76.23546578	    850.16516676	    -52.70107911	     45.00000000	    -45.00000000	     40.67654186	    -45.00000000	    -29.16290188	    349.55026683	   4179.18933883	    -90.00000000	    -17.81907980	   3937.78112176	     97.22388791	     14.66310202	     11.66969368	     -0.58830933	     33.19706558	    -32.51129328	    -45.00000000	    -45.00000000	   4409.65963079	  -5127.07646063	    132.05421435	   -101.77055040	   1790.23612050	    401.09146061	     14.15768369	    -21.96629015
